<svg width="93" height="24" viewBox="0 0 93 24" fill="none" xmlns="http://www.w3.org/2000/svg">
<path d="M10.1562 23.3125C8.13542 23.3125 6.38542 22.8594 4.90625 21.9531C3.42708 21.0469 2.29167 19.7188 1.5 17.9688C0.708333 16.2188 0.3125 14.125 0.3125 11.6875C0.3125 9.22917 0.708333 7.13021 1.5 5.39062C2.29167 3.65104 3.42708 2.32812 4.90625 1.42188C6.39583 0.515625 8.14583 0.0625 10.1562 0.0625C12.1979 0.0625 13.9583 0.515625 15.4375 1.42188C16.9271 2.32812 18.0677 3.65625 18.8594 5.40625C19.651 7.15625 20.0469 9.25 20.0469 11.6875C20.0469 14.1458 19.651 16.2448 18.8594 17.9844C18.0677 19.724 16.9271 21.0469 15.4375 21.9531C13.9583 22.8594 12.1979 23.3125 10.1562 23.3125ZM10.1562 18.5156C10.9062 18.5156 11.5625 18.276 12.125 17.7969C12.6979 17.3073 13.1354 16.5521 13.4375 15.5312C13.75 14.5104 13.8958 13.2292 13.875 11.6875C13.875 10.1667 13.7188 8.89583 13.4062 7.875C13.1042 6.85417 12.6719 6.09896 12.1094 5.60938C11.5573 5.10938 10.9062 4.85938 10.1562 4.85938C9.42708 4.85938 8.78646 5.10938 8.23438 5.60938C7.68229 6.09896 7.25 6.85417 6.9375 7.875C6.63542 8.89583 6.48438 10.1667 6.48438 11.6875C6.48438 13.2292 6.63542 14.5104 6.9375 15.5312C7.25 16.5521 7.68229 17.3073 8.23438 17.7969C8.78646 18.276 9.42708 18.5156 10.1562 18.5156ZM37.8594 8.76562C37.8073 8.05729 37.6146 7.4375 37.2812 6.90625C36.9583 6.375 36.5 5.96875 35.9062 5.6875C35.3125 5.39583 34.625 5.25 33.8438 5.25C32.8021 5.25 31.9167 5.50521 31.1875 6.01562C30.4583 6.52604 29.8958 7.26562 29.5 8.23438C29.1146 9.19271 28.9219 10.3438 28.9219 11.6875C28.9219 13.0938 29.1146 14.2708 29.5 15.2188C29.8958 16.1667 30.4583 16.8906 31.1875 17.3906C31.9167 17.8802 32.7812 18.125 33.7812 18.125C34.5521 18.125 35.2188 17.9948 35.7812 17.7344C36.3542 17.4635 36.8125 17.0885 37.1562 16.6094C37.5104 16.1198 37.7448 15.5417 37.8594 14.875L43.9062 14.9375C43.7917 16.3021 43.3229 17.625 42.5 18.9062C41.6771 20.1875 40.5104 21.2448 39 22.0781C37.5 22.901 35.724 23.3125 33.6719 23.3125C31.5885 23.3125 29.724 22.8594 28.0781 21.9531C26.4323 21.0469 25.1406 19.7188 24.2031 17.9688C23.276 16.2083 22.8125 14.1146 22.8125 11.6875C22.8125 9.23958 23.2865 7.14062 24.2344 5.39062C25.1927 3.64062 26.4896 2.31771 28.125 1.42188C29.7604 0.515625 31.6094 0.0625 33.6719 0.0625C35.5573 0.0625 37.2396 0.40625 38.7188 1.09375C40.1979 1.77083 41.3906 2.76562 42.2969 4.07812C43.2031 5.39062 43.7396 6.95312 43.9062 8.76562H37.8594ZM46.7656 0.375H52.7031V9.28125H61.0781V0.375H67.0156V23H61.0781V14.0781H52.7031V23H46.7656V0.375ZM69.25 23L76.7656 0.375H84.8438L92.3594 23H85.9375L80.9062 6.45312H80.7188L75.6719 23H69.25ZM86.9688 14.0625V18.5469H74.5469V14.0625H86.9688Z" fill="#CCFF33"/>
</svg>
