<svg width="25" height="25" viewBox="0 0 25 25" fill="current" xmlns="http://www.w3.org/2000/svg">
<path d="M12.5 2.53906C10.5299 2.53906 8.60407 3.12326 6.966 4.21778C5.32794 5.3123 4.05122 6.86799 3.2973 8.68811C2.54338 10.5082 2.34612 12.5111 2.73046 14.4433C3.11481 16.3755 4.0635 18.1504 5.45656 19.5434C6.84962 20.9365 8.62449 21.8852 10.5567 22.2695C12.489 22.6539 14.4918 22.4566 16.3119 21.7027C18.132 20.9488 19.6877 19.6721 20.7822 18.034C21.8767 16.3959 22.4609 14.4701 22.4609 12.5C22.4578 9.85915 21.4074 7.32735 19.54 5.45998C17.6727 3.59261 15.1409 2.54216 12.5 2.53906ZM12.5 21.2891C10.7617 21.2891 9.06242 20.7736 7.61706 19.8078C6.17171 18.8421 5.04519 17.4694 4.37997 15.8634C3.71475 14.2574 3.54069 12.4903 3.87982 10.7853C4.21895 9.08043 5.05603 7.51437 6.2852 6.28519C7.51437 5.05602 9.08043 4.21894 10.7853 3.87982C12.4903 3.54069 14.2574 3.71474 15.8634 4.37996C17.4694 5.04519 18.8421 6.1717 19.8078 7.61706C20.7736 9.06241 21.2891 10.7617 21.2891 12.5C21.2865 14.8302 20.3597 17.0642 18.712 18.712C17.0642 20.3597 14.8302 21.2865 12.5 21.2891ZM16.9922 12.5C16.9922 12.6554 16.9305 12.8044 16.8206 12.9143C16.7107 13.0242 16.5617 13.0859 16.4063 13.0859H13.0859V16.4062C13.0859 16.5617 13.0242 16.7107 12.9143 16.8206C12.8044 16.9305 12.6554 16.9922 12.5 16.9922C12.3446 16.9922 12.1956 16.9305 12.0857 16.8206C11.9758 16.7107 11.9141 16.5617 11.9141 16.4062V13.0859H8.59375C8.43835 13.0859 8.28932 13.0242 8.17943 12.9143C8.06955 12.8044 8.00782 12.6554 8.00782 12.5C8.00782 12.3446 8.06955 12.1956 8.17943 12.0857C8.28932 11.9758 8.43835 11.9141 8.59375 11.9141H11.9141V8.59375C11.9141 8.43835 11.9758 8.28931 12.0857 8.17943C12.1956 8.06955 12.3446 8.00781 12.5 8.00781C12.6554 8.00781 12.8044 8.06955 12.9143 8.17943C13.0242 8.28931 13.0859 8.43835 13.0859 8.59375V11.9141H16.4063C16.5617 11.9141 16.7107 11.9758 16.8206 12.0857C16.9305 12.1956 16.9922 12.3446 16.9922 12.5Z" fill="#ccff33"/>
</svg>
