<svg width="25" height="40" viewBox="0 0 25 40" fill="current" xmlns="http://www.w3.org/2000/svg">
<path d="M14.8438 9.57031H10.1562C10.0008 9.57031 9.85181 9.63205 9.74193 9.74193C9.63205 9.85181 9.57031 10.0008 9.57031 10.1562V14.8438C9.57031 14.9992 9.63205 15.1482 9.74193 15.2581C9.85181 15.368 10.0008 15.4297 10.1562 15.4297H14.8438C14.9992 15.4297 15.1482 15.368 15.2581 15.2581C15.368 15.1482 15.4297 14.9992 15.4297 14.8438V10.1562C15.4297 10.0008 15.368 9.85181 15.2581 9.74193C15.1482 9.63205 14.9992 9.57031 14.8438 9.57031ZM14.2578 14.2578H10.7422V10.7422H14.2578V14.2578ZM22.6562 14.2578H20.8984V10.7422H22.6562C22.8117 10.7422 22.9607 10.6805 23.0706 10.5706C23.1805 10.4607 23.2422 10.3117 23.2422 10.1562C23.2422 10.0008 23.1805 9.85181 23.0706 9.74193C22.9607 9.63205 22.8117 9.57031 22.6562 9.57031H20.8984V5.46875C20.8984 5.10615 20.7544 4.7584 20.498 4.502C20.2416 4.24561 19.8939 4.10156 19.5312 4.10156H15.4297V2.34375C15.4297 2.18835 15.368 2.03931 15.2581 1.92943C15.1482 1.81954 14.9992 1.75781 14.8438 1.75781C14.6883 1.75781 14.5393 1.81954 14.4294 1.92943C14.3195 2.03931 14.2578 2.18835 14.2578 2.34375V4.10156H10.7422V2.34375C10.7422 2.18835 10.6805 2.03931 10.5706 1.92943C10.4607 1.81954 10.3117 1.75781 10.1562 1.75781C10.0008 1.75781 9.85181 1.81954 9.74193 1.92943C9.63205 2.03931 9.57031 2.18835 9.57031 2.34375V4.10156H5.46875C5.10615 4.10156 4.7584 4.24561 4.502 4.502C4.24561 4.7584 4.10156 5.10615 4.10156 5.46875V9.57031H2.34375C2.18835 9.57031 2.03931 9.63205 1.92943 9.74193C1.81954 9.85181 1.75781 10.0008 1.75781 10.1562C1.75781 10.3117 1.81954 10.4607 1.92943 10.5706C2.03931 10.6805 2.18835 10.7422 2.34375 10.7422H4.10156V14.2578H2.34375C2.18835 14.2578 2.03931 14.3195 1.92943 14.4294C1.81954 14.5393 1.75781 14.6883 1.75781 14.8438C1.75781 14.9992 1.81954 15.1482 1.92943 15.2581C2.03931 15.368 2.18835 15.4297 2.34375 15.4297H4.10156V19.5312C4.10156 19.8939 4.24561 20.2416 4.502 20.498C4.7584 20.7544 5.10615 20.8984 5.46875 20.8984H9.57031V22.6562C9.57031 22.8117 9.63205 22.9607 9.74193 23.0706C9.85181 23.1805 10.0008 23.2422 10.1562 23.2422C10.3117 23.2422 10.4607 23.1805 10.5706 23.0706C10.6805 22.9607 10.7422 22.8117 10.7422 22.6562V20.8984H14.2578V22.6562C14.2578 22.8117 14.3195 22.9607 14.4294 23.0706C14.5393 23.1805 14.6883 23.2422 14.8438 23.2422C14.9992 23.2422 15.1482 23.1805 15.2581 23.0706C15.368 22.9607 15.4297 22.8117 15.4297 22.6562V20.8984H19.5312C19.8939 20.8984 20.2416 20.7544 20.498 20.498C20.7544 20.2416 20.8984 19.8939 20.8984 19.5312V15.4297H22.6562C22.8117 15.4297 22.9607 15.368 23.0706 15.2581C23.1805 15.1482 23.2422 14.9992 23.2422 14.8438C23.2422 14.6883 23.1805 14.5393 23.0706 14.4294C22.9607 14.3195 22.8117 14.2578 22.6562 14.2578ZM19.7266 19.5312C19.7266 19.583 19.706 19.6327 19.6694 19.6694C19.6327 19.706 19.583 19.7266 19.5312 19.7266H5.46875C5.41695 19.7266 5.36727 19.706 5.33064 19.6694C5.29401 19.6327 5.27344 19.583 5.27344 19.5312V5.46875C5.27344 5.41695 5.29401 5.36727 5.33064 5.33064C5.36727 5.29401 5.41695 5.27344 5.46875 5.27344H19.5312C19.583 5.27344 19.6327 5.29401 19.6694 5.33064C19.706 5.36727 19.7266 5.41695 19.7266 5.46875V19.5312Z" fill="current"/>
<path d="M9.07422 37H7.70312L10.75 28.5156H12.2383L15.2969 37H13.9258L13.1523 34.7617H9.84766L9.07422 37ZM10.2227 33.6836H12.7773L11.5234 30.0625H11.4648L10.2227 33.6836ZM17.6641 28.5156V37H16.375V28.5156H17.6641Z" fill="current"/>
</svg>
