<svg width="25" height="25" viewBox="0 0 25 25" fill="current" xmlns="http://www.w3.org/2000/svg">
<path d="M16.2109 21.875C16.2109 22.0304 16.1492 22.1794 16.0393 22.2893C15.9294 22.3992 15.7804 22.4609 15.625 22.4609H9.37499C9.21959 22.4609 9.07055 22.3992 8.96067 22.2893C8.85078 22.1794 8.78905 22.0304 8.78905 21.875C8.78905 21.7196 8.85078 21.5706 8.96067 21.4607C9.07055 21.3508 9.21959 21.2891 9.37499 21.2891H15.625C15.7804 21.2891 15.9294 21.3508 16.0393 21.4607C16.1492 21.5706 16.2109 21.7196 16.2109 21.875ZM21.4951 18.6523C21.3766 18.861 21.2047 19.0343 20.997 19.1544C20.7893 19.2746 20.5534 19.3372 20.3135 19.3359H4.68749C4.44717 19.3354 4.21122 19.2716 4.00344 19.1508C3.79565 19.0301 3.62337 18.8567 3.50394 18.6482C3.38452 18.4396 3.32217 18.2033 3.32319 17.9629C3.32421 17.7226 3.38856 17.4868 3.50975 17.2793C4.06151 16.3281 4.8828 13.6465 4.8828 10.1562C4.8828 8.13605 5.68532 6.19859 7.11382 4.77009C8.54232 3.34159 10.4798 2.53906 12.5 2.53906C14.5202 2.53906 16.4577 3.34159 17.8862 4.77009C19.3147 6.19859 20.1172 8.13605 20.1172 10.1562C20.1172 13.6455 20.9394 16.3281 21.4922 17.2793C21.6147 17.4872 21.6795 17.7241 21.68 17.9654C21.6806 18.2068 21.6167 18.4439 21.4951 18.6523ZM20.4785 17.8711C19.7392 16.6016 18.9453 13.6406 18.9453 10.1562C18.9453 8.44685 18.2662 6.80746 17.0575 5.59873C15.8488 4.39 14.2094 3.71094 12.5 3.71094C10.7906 3.71094 9.15119 4.39 7.94246 5.59873C6.73373 6.80746 6.05468 8.44685 6.05468 10.1562C6.05468 13.6416 5.25975 16.6016 4.5205 17.8711C4.50335 17.9008 4.49433 17.9345 4.49433 17.9688C4.49433 18.003 4.50335 18.0367 4.5205 18.0664C4.53658 18.0963 4.56057 18.1212 4.58984 18.1385C4.61911 18.1557 4.65255 18.1645 4.68651 18.1641H20.3125C20.3464 18.1645 20.3799 18.1557 20.4092 18.1385C20.4384 18.1212 20.4624 18.0963 20.4785 18.0664C20.4956 18.0367 20.5047 18.003 20.5047 17.9688C20.5047 17.9345 20.4956 17.9008 20.4785 17.8711Z" fill="white"/>
</svg>
