<svg width="25" height="25" viewBox="0 0 25 25" fill="none" xmlns="http://www.w3.org/2000/svg">
<path d="M16.0385 19.8985C16.0961 19.9521 16.1423 20.0168 16.1743 20.0887C16.2063 20.1605 16.2236 20.2381 16.2249 20.3168C16.2263 20.3955 16.2119 20.4736 16.1824 20.5466C16.1529 20.6196 16.1091 20.6858 16.0534 20.7415C15.9978 20.7971 15.9315 20.841 15.8585 20.8704C15.7856 20.8999 15.7074 20.9144 15.6288 20.913C15.5501 20.9116 15.4725 20.8944 15.4006 20.8624C15.3288 20.8303 15.2641 20.7842 15.2104 20.7266L7.39792 12.9141C7.2882 12.8042 7.22656 12.6553 7.22656 12.5C7.22656 12.3448 7.2882 12.1958 7.39792 12.086L15.2104 4.27347C15.3215 4.16997 15.4684 4.11362 15.6202 4.1163C15.772 4.11898 15.9168 4.18047 16.0242 4.28783C16.1315 4.39518 16.193 4.54001 16.1957 4.69181C16.1984 4.84361 16.142 4.99052 16.0385 5.1016L8.64109 12.5L16.0385 19.8985Z" fill="white"/>
</svg>
