<svg width="25" height="40" viewBox="0 0 25 40" fill="current" xmlns="http://www.w3.org/2000/svg">
<path d="M20.3125 3.32031H17.7734V2.34375C17.7734 2.18835 17.7117 2.03931 17.6018 1.92943C17.4919 1.81954 17.3429 1.75781 17.1875 1.75781C17.0321 1.75781 16.8831 1.81954 16.7732 1.92943C16.6633 2.03931 16.6016 2.18835 16.6016 2.34375V3.32031H8.39844V2.34375C8.39844 2.18835 8.3367 2.03931 8.22682 1.92943C8.11694 1.81954 7.9679 1.75781 7.8125 1.75781C7.6571 1.75781 7.50806 1.81954 7.39818 1.92943C7.2883 2.03931 7.22656 2.18835 7.22656 2.34375V3.32031H4.6875C4.3249 3.32031 3.97715 3.46436 3.72075 3.72075C3.46436 3.97715 3.32031 4.3249 3.32031 4.6875V20.3125C3.32031 20.6751 3.46436 21.0229 3.72075 21.2792C3.97715 21.5356 4.3249 21.6797 4.6875 21.6797H20.3125C20.6751 21.6797 21.0229 21.5356 21.2792 21.2792C21.5356 21.0229 21.6797 20.6751 21.6797 20.3125V4.6875C21.6797 4.3249 21.5356 3.97715 21.2792 3.72075C21.0229 3.46436 20.6751 3.32031 20.3125 3.32031ZM4.6875 4.49219H7.22656V5.46875C7.22656 5.62415 7.2883 5.77319 7.39818 5.88307C7.50806 5.99296 7.6571 6.05469 7.8125 6.05469C7.9679 6.05469 8.11694 5.99296 8.22682 5.88307C8.3367 5.77319 8.39844 5.62415 8.39844 5.46875V4.49219H16.6016V5.46875C16.6016 5.62415 16.6633 5.77319 16.7732 5.88307C16.8831 5.99296 17.0321 6.05469 17.1875 6.05469C17.3429 6.05469 17.4919 5.99296 17.6018 5.88307C17.7117 5.77319 17.7734 5.62415 17.7734 5.46875V4.49219H20.3125C20.3643 4.49219 20.414 4.51276 20.4506 4.54939C20.4872 4.58602 20.5078 4.6357 20.5078 4.6875V8.00781H4.49219V4.6875C4.49219 4.6357 4.51276 4.58602 4.54939 4.54939C4.58602 4.51276 4.6357 4.49219 4.6875 4.49219ZM20.3125 20.5078H4.6875C4.6357 20.5078 4.58602 20.4872 4.54939 20.4506C4.51276 20.414 4.49219 20.3643 4.49219 20.3125V9.17969H20.5078V20.3125C20.5078 20.3643 20.4872 20.414 20.4506 20.4506C20.414 20.4872 20.3643 20.5078 20.3125 20.5078ZM13.4766 12.8906C13.4766 13.0838 13.4193 13.2726 13.312 13.4332C13.2047 13.5938 13.0522 13.7189 12.8737 13.7929C12.6953 13.8668 12.4989 13.8861 12.3095 13.8484C12.12 13.8107 11.946 13.7177 11.8095 13.5812C11.6729 13.4446 11.5799 13.2706 11.5422 13.0811C11.5045 12.8917 11.5239 12.6954 11.5978 12.5169C11.6717 12.3385 11.7969 12.1859 11.9575 12.0786C12.118 11.9713 12.3069 11.9141 12.5 11.9141C12.759 11.9141 13.0074 12.0169 13.1905 12.2001C13.3737 12.3832 13.4766 12.6316 13.4766 12.8906ZM17.7734 12.8906C17.7734 13.0838 17.7162 13.2726 17.6089 13.4332C17.5016 13.5938 17.349 13.7189 17.1706 13.7929C16.9921 13.8668 16.7958 13.8861 16.6064 13.8484C16.4169 13.8107 16.2429 13.7177 16.1063 13.5812C15.9698 13.4446 15.8768 13.2706 15.8391 13.0811C15.8014 12.8917 15.8207 12.6954 15.8946 12.5169C15.9686 12.3385 16.0937 12.1859 16.2543 12.0786C16.4149 11.9713 16.6037 11.9141 16.7969 11.9141C17.0559 11.9141 17.3043 12.0169 17.4874 12.2001C17.6706 12.3832 17.7734 12.6316 17.7734 12.8906ZM9.17969 16.7969C9.17969 16.99 9.12241 17.1788 9.01511 17.3394C8.9078 17.5 8.75528 17.6252 8.57684 17.6991C8.3984 17.773 8.20204 17.7924 8.01261 17.7547C7.82317 17.717 7.64917 17.624 7.51259 17.4874C7.37602 17.3508 7.28301 17.1768 7.24533 16.9874C7.20765 16.798 7.22699 16.6016 7.3009 16.4232C7.37481 16.2447 7.49998 16.0922 7.66058 15.9849C7.82117 15.8776 8.00998 15.8203 8.20312 15.8203C8.46213 15.8203 8.71052 15.9232 8.89366 16.1063C9.0768 16.2895 9.17969 16.5379 9.17969 16.7969ZM13.4766 16.7969C13.4766 16.99 13.4193 17.1788 13.312 17.3394C13.2047 17.5 13.0522 17.6252 12.8737 17.6991C12.6953 17.773 12.4989 17.7924 12.3095 17.7547C12.12 17.717 11.946 17.624 11.8095 17.4874C11.6729 17.3508 11.5799 17.1768 11.5422 16.9874C11.5045 16.798 11.5239 16.6016 11.5978 16.4232C11.6717 16.2447 11.7969 16.0922 11.9575 15.9849C12.118 15.8776 12.3069 15.8203 12.5 15.8203C12.759 15.8203 13.0074 15.9232 13.1905 16.1063C13.3737 16.2895 13.4766 16.5379 13.4766 16.7969ZM17.7734 16.7969C17.7734 16.99 17.7162 17.1788 17.6089 17.3394C17.5016 17.5 17.349 17.6252 17.1706 17.6991C16.9921 17.773 16.7958 17.7924 16.6064 17.7547C16.4169 17.717 16.2429 17.624 16.1063 17.4874C15.9698 17.3508 15.8768 17.1768 15.8391 16.9874C15.8014 16.798 15.8207 16.6016 15.8946 16.4232C15.9686 16.2447 16.0937 16.0922 16.2543 15.9849C16.4149 15.8776 16.6037 15.8203 16.7969 15.8203C17.0559 15.8203 17.3043 15.9232 17.4874 16.1063C17.6706 16.2895 17.7734 16.5379 17.7734 16.7969Z" fill="current"/>
<path d="M11.2461 27.4961V37.9961H10.1211V27.4961H11.2461ZM8.11719 28.6211C8.11719 31.6914 6.80469 34.3633 3.20703 36.0859L2.62109 35.1836C5.41602 33.8535 6.77539 31.9609 6.99219 29.5117H3.125V28.6211H8.11719ZM22.4844 33.2266V34.1289H12.875V33.2266H17.1289V32.2305H14.1055V29.5586H20.1641V28.6211H14.082V27.7422H21.2773V30.3789H15.207V31.3633H21.4883V32.2305H18.2305V33.2266H22.4844ZM21.3359 34.8672V37.9141H20.2109V35.7578H13.9531V34.8672H21.3359Z" fill="current"/>
</svg>
