<svg width="25" height="25" viewBox="0 0 25 25" fill="current" xmlns="http://www.w3.org/2000/svg">
<path d="M21.0938 4.88281H3.90627C3.54367 4.88281 3.19592 5.02686 2.93952 5.28325C2.68313 5.53965 2.53908 5.8874 2.53908 6.25V21.875C2.53767 22.1357 2.61145 22.3912 2.75157 22.611C2.89169 22.8308 3.09222 23.0055 3.32912 23.1143C3.50997 23.1982 3.70689 23.2418 3.90627 23.2422C4.22835 23.2424 4.53996 23.1278 4.78518 22.9189L4.79104 22.9141L8.03029 20.1172H21.0938C21.4564 20.1172 21.8041 19.9731 22.0605 19.7167C22.3169 19.4604 22.461 19.1126 22.461 18.75V6.25C22.461 5.8874 22.3169 5.53965 22.0605 5.28325C21.8041 5.02686 21.4564 4.88281 21.0938 4.88281ZM21.2891 18.75C21.2891 18.8018 21.2685 18.8515 21.2319 18.8881C21.1952 18.9247 21.1456 18.9453 21.0938 18.9453H7.81252C7.67194 18.9454 7.53608 18.996 7.42971 19.0879L4.02932 22.0244C4.00081 22.0475 3.96636 22.0622 3.92991 22.0666C3.89347 22.0711 3.85651 22.0652 3.82328 22.0496C3.79004 22.034 3.76188 22.0093 3.74201 21.9784C3.72214 21.9476 3.71138 21.9117 3.71096 21.875V6.25C3.71096 6.1982 3.73153 6.14852 3.76816 6.11189C3.80479 6.07526 3.85447 6.05469 3.90627 6.05469H21.0938C21.1456 6.05469 21.1952 6.07526 21.2319 6.11189C21.2685 6.14852 21.2891 6.1982 21.2891 6.25V18.75Z" fill="current"/>
</svg>
