<svg width="44" height="44" viewBox="0 0 44 44" fill="none" xmlns="http://www.w3.org/2000/svg">
<path d="M40.832 17.3516C40.0703 16.5566 39.2832 15.7363 38.9668 14.9727C38.6738 14.2637 38.6582 13.2148 38.6406 12.1055C38.6133 10.2734 38.582 8.19922 37.1914 6.80859C35.8008 5.41797 33.7188 5.38672 31.8945 5.35938C30.7852 5.3418 29.7461 5.32617 29.0273 5.0332C28.2637 4.7168 27.4434 3.92969 26.6484 3.16797C25.3516 1.92578 23.8828 0.515625 22 0.515625C20.1172 0.515625 18.6484 1.92578 17.3516 3.16797C16.5566 3.92969 15.7363 4.7168 14.9727 5.0332C14.2637 5.32617 13.2148 5.3418 12.1055 5.35938C10.2734 5.38672 8.19922 5.41797 6.80859 6.80859C5.41797 8.19922 5.38672 10.2812 5.35938 12.1055C5.3418 13.2148 5.32617 14.2539 5.0332 14.9727C4.7168 15.7363 3.92969 16.5566 3.16797 17.3516C1.92578 18.6484 0.515625 20.1172 0.515625 22C0.515625 23.8828 1.92578 25.3516 3.16797 26.6484C3.92969 27.4434 4.7168 28.2637 5.0332 29.0273C5.32617 29.7363 5.3418 30.7852 5.35938 31.8945C5.38672 33.7266 5.41797 35.8008 6.80859 37.1914C8.19922 38.582 10.2812 38.6133 12.1055 38.6406C13.2148 38.6582 14.2539 38.6738 14.9727 38.9668C15.7363 39.2832 16.5566 40.0703 17.3516 40.832C18.6484 42.0742 20.1172 43.4844 22 43.4844C23.8828 43.4844 25.3516 42.0742 26.6484 40.832C27.4434 40.0703 28.2637 39.2832 29.0273 38.9668C29.7363 38.6738 30.7852 38.6582 31.8945 38.6406C33.7266 38.6133 35.8008 38.582 37.1914 37.1914C38.582 35.8008 38.6133 33.7266 38.6406 31.8945C38.6582 30.7852 38.6738 29.7461 38.9668 29.0273C39.2832 28.2637 40.0703 27.4434 40.832 26.6484C42.0742 25.3516 43.4844 23.8828 43.4844 22C43.4844 20.1172 42.0742 18.6484 40.832 17.3516ZM39.1406 25.0273C38.2285 25.9766 37.2852 26.9609 36.7969 28.1328C36.332 29.2539 36.3125 30.5781 36.293 31.8594C36.2715 33.3125 36.248 34.8164 35.5312 35.5352C34.8145 36.2539 33.3086 36.2754 31.8555 36.2969C30.5742 36.3164 29.25 36.3359 28.1289 36.8008C26.957 37.2852 25.9805 38.2285 25.0215 39.1445C23.9961 40.1211 22.9355 41.1445 21.9961 41.1445C21.0566 41.1445 19.9961 40.127 18.9688 39.1445C18.0195 38.2324 17.0352 37.2891 15.8633 36.8008C14.7422 36.3359 13.418 36.3164 12.1367 36.2969C10.6836 36.2754 9.17969 36.252 8.46094 35.5352C7.74219 34.8184 7.7207 33.3125 7.69922 31.8594C7.67969 30.5781 7.66016 29.2539 7.19531 28.1328C6.71094 26.9609 5.76758 25.9844 4.85156 25.0254C3.87695 24 2.85938 22.9395 2.85938 22C2.85938 21.0605 3.87695 20 4.85938 18.9727C5.77148 18.0234 6.71484 17.0391 7.20313 15.8672C7.66797 14.7461 7.6875 13.4219 7.70703 12.1406C7.72852 10.6875 7.75195 9.18359 8.46875 8.46484C9.18555 7.74609 10.6914 7.72461 12.1445 7.70312C13.4258 7.68359 14.75 7.66406 15.8711 7.19922C17.043 6.71484 18.0195 5.77148 18.9785 4.85547C20 3.87695 21.0605 2.85938 22 2.85938C22.9395 2.85938 24 3.87695 25.0273 4.85938C25.9766 5.77148 26.9609 6.71484 28.1328 7.20313C29.2539 7.66797 30.5781 7.6875 31.8594 7.70703C33.3125 7.72852 34.8164 7.75195 35.5352 8.46875C36.2539 9.18555 36.2754 10.6914 36.2969 12.1445C36.3164 13.4258 36.3359 14.75 36.8008 15.8711C37.2852 17.043 38.2285 18.0195 39.1445 18.9785C40.1211 20.0039 41.1445 21.0645 41.1445 22.0039C41.1445 22.9434 40.123 24 39.1406 25.0273ZM30.6406 16.4844C30.8601 16.7041 30.9833 17.002 30.9833 17.3125C30.9833 17.623 30.8601 17.9209 30.6406 18.1406L19.7031 29.0781C19.4834 29.2976 19.1855 29.4208 18.875 29.4208C18.5645 29.4208 18.2666 29.2976 18.0469 29.0781L13.3594 24.3906C13.1524 24.1685 13.0397 23.8747 13.045 23.5711C13.0504 23.2675 13.1734 22.9778 13.3881 22.7631C13.6028 22.5484 13.8925 22.4254 14.1961 22.42C14.4997 22.4147 14.7935 22.5274 15.0156 22.7344L18.875 26.5918L28.9844 16.4844C29.2041 16.2649 29.502 16.1417 29.8125 16.1417C30.123 16.1417 30.4209 16.2649 30.6406 16.4844Z" fill="#CCFF33"/>
</svg>
