<svg width="25" height="40" viewBox="0 0 25 40" fill="current" xmlns="http://www.w3.org/2000/svg">
<path d="M24.2188 11.9141H23.2422V8.59375C23.2422 8.23115 23.0981 7.8834 22.8417 7.627C22.5854 7.3706 22.2376 7.22656 21.875 7.22656H20.1172V6.25C20.1172 5.8874 19.9731 5.53965 19.7167 5.28325C19.4604 5.02686 19.1126 4.88281 18.75 4.88281H16.4062C16.0436 4.88281 15.6959 5.02686 15.4395 5.28325C15.1831 5.53965 15.0391 5.8874 15.0391 6.25V11.9141H9.96094V6.25C9.96094 5.8874 9.8169 5.53965 9.5605 5.28325C9.3041 5.02686 8.95635 4.88281 8.59375 4.88281H6.25C5.8874 4.88281 5.53965 5.02686 5.28325 5.28325C5.02685 5.53965 4.88281 5.8874 4.88281 6.25V7.22656H3.125C2.7624 7.22656 2.41465 7.3706 2.15825 7.627C1.90186 7.8834 1.75781 8.23115 1.75781 8.59375V11.9141H0.78125C0.62585 11.9141 0.476814 11.9758 0.36693 12.0857C0.257045 12.1956 0.195313 12.3446 0.195312 12.5C0.195313 12.6554 0.257045 12.8044 0.36693 12.9143C0.476814 13.0242 0.62585 13.0859 0.78125 13.0859H1.75781V16.4062C1.75781 16.7689 1.90186 17.1166 2.15825 17.373C2.41465 17.6294 2.7624 17.7734 3.125 17.7734H4.88281V18.75C4.88281 19.1126 5.02685 19.4604 5.28325 19.7167C5.53965 19.9731 5.8874 20.1172 6.25 20.1172H8.59375C8.95635 20.1172 9.3041 19.9731 9.5605 19.7167C9.8169 19.4604 9.96094 19.1126 9.96094 18.75V13.0859H15.0391V18.75C15.0391 19.1126 15.1831 19.4604 15.4395 19.7167C15.6959 19.9731 16.0436 20.1172 16.4062 20.1172H18.75C19.1126 20.1172 19.4604 19.9731 19.7167 19.7167C19.9731 19.4604 20.1172 19.1126 20.1172 18.75V17.7734H21.875C22.2376 17.7734 22.5854 17.6294 22.8417 17.373C23.0981 17.1166 23.2422 16.7689 23.2422 16.4062V13.0859H24.2188C24.3742 13.0859 24.5232 13.0242 24.6331 12.9143C24.743 12.8044 24.8047 12.6554 24.8047 12.5C24.8047 12.3446 24.743 12.1956 24.6331 12.0857C24.5232 11.9758 24.3742 11.9141 24.2188 11.9141ZM3.125 16.6016C3.0732 16.6016 3.02352 16.581 2.98689 16.5444C2.95026 16.5077 2.92969 16.458 2.92969 16.4062V8.59375C2.92969 8.54195 2.95026 8.49227 2.98689 8.45564C3.02352 8.41901 3.0732 8.39844 3.125 8.39844H4.88281V16.6016H3.125ZM8.78906 18.75C8.78906 18.8018 8.76849 18.8515 8.73186 18.8881C8.69523 18.9247 8.64555 18.9453 8.59375 18.9453H6.25C6.1982 18.9453 6.14852 18.9247 6.11189 18.8881C6.07526 18.8515 6.05469 18.8018 6.05469 18.75V6.25C6.05469 6.1982 6.07526 6.14852 6.11189 6.11189C6.14852 6.07526 6.1982 6.05469 6.25 6.05469H8.59375C8.64555 6.05469 8.69523 6.07526 8.73186 6.11189C8.76849 6.14852 8.78906 6.1982 8.78906 6.25V18.75ZM18.9453 18.75C18.9453 18.8018 18.9247 18.8515 18.8881 18.8881C18.8515 18.9247 18.8018 18.9453 18.75 18.9453H16.4062C16.3545 18.9453 16.3048 18.9247 16.2681 18.8881C16.2315 18.8515 16.2109 18.8018 16.2109 18.75V6.25C16.2109 6.1982 16.2315 6.14852 16.2681 6.11189C16.3048 6.07526 16.3545 6.05469 16.4062 6.05469H18.75C18.8018 6.05469 18.8515 6.07526 18.8881 6.11189C18.9247 6.14852 18.9453 6.1982 18.9453 6.25V18.75ZM22.0703 16.4062C22.0703 16.458 22.0497 16.5077 22.0131 16.5444C21.9765 16.581 21.9268 16.6016 21.875 16.6016H20.1172V8.39844H21.875C21.9268 8.39844 21.9765 8.41901 22.0131 8.45564C22.0497 8.49227 22.0703 8.54195 22.0703 8.59375V16.4062Z" fill="current"/>
<path d="M12.1133 32.7578V33.6602H7.95312V35.6992H6.82812V33.6602H2.50391V32.7578H12.1133ZM11.0469 36.8594V37.7734H3.71094V34.6914H4.82422V36.8594H11.0469ZM7.29688 27.7422C9.55859 27.7422 11.0234 28.5625 11.0234 29.875C11.0234 31.1875 9.55859 31.9961 7.29688 31.9961C5.04688 31.9961 3.55859 31.1875 3.55859 29.875C3.55859 28.5625 5.04688 27.7422 7.29688 27.7422ZM7.29688 28.6328C5.76172 28.6328 4.74219 29.1016 4.75391 29.875C4.74219 30.6367 5.76172 31.0938 7.29688 31.0938C8.84375 31.0938 9.85156 30.6367 9.85156 29.875C9.85156 29.1016 8.84375 28.6328 7.29688 28.6328ZM22.4727 32.6055V33.4961H12.8867V32.6055H17.1406V31.4922H14.082V27.9766H21.2891V28.8555H15.1836V30.6016H21.3594V31.4922H18.2188V32.6055H22.4727ZM17.668 34.1758C19.9297 34.1758 21.2891 34.8672 21.2891 36.0859C21.2891 37.3047 19.9297 37.9844 17.668 37.9961C15.3945 37.9844 14.0234 37.3047 14.0234 36.0859C14.0234 34.8672 15.3945 34.1758 17.668 34.1758ZM17.668 35.043C16.0625 35.043 15.1484 35.418 15.1484 36.0859C15.1484 36.7539 16.0625 37.1289 17.668 37.1172C19.25 37.1289 20.1758 36.7539 20.1758 36.0859C20.1758 35.418 19.25 35.043 17.668 35.043Z" fill="current"/>
</svg>
