<svg width="25" height="40" viewBox="0 0 25 40" fill="current" xmlns="http://www.w3.org/2000/svg">
<path d="M21.2793 10.7519L13.4668 2.93943C13.3398 2.81246 13.1891 2.71174 13.0232 2.64302C12.8574 2.57431 12.6796 2.53894 12.5 2.53894C12.3205 2.53894 12.1427 2.57431 11.9768 2.64302C11.8109 2.71174 11.6602 2.81246 11.5332 2.93943L3.72071 10.7519C3.59341 10.8786 3.49248 11.0293 3.42376 11.1953C3.35503 11.3612 3.31988 11.5391 3.32032 11.7187V21.0937C3.32032 21.2491 3.38205 21.3982 3.49193 21.508C3.60182 21.6179 3.75085 21.6797 3.90625 21.6797H10.1563C10.3117 21.6797 10.4607 21.6179 10.5706 21.508C10.6805 21.3982 10.7422 21.2491 10.7422 21.0937V15.4297H14.2578V21.0937C14.2578 21.2491 14.3195 21.3982 14.4294 21.508C14.5393 21.6179 14.6884 21.6797 14.8438 21.6797H21.0938C21.2492 21.6797 21.3982 21.6179 21.5081 21.508C21.618 21.3982 21.6797 21.2491 21.6797 21.0937V11.7187C21.6801 11.5391 21.645 11.3612 21.5763 11.1953C21.5075 11.0293 21.4066 10.8786 21.2793 10.7519ZM20.5078 20.5078H15.4297V14.8437C15.4297 14.6883 15.368 14.5393 15.2581 14.4294C15.1482 14.3195 14.9992 14.2578 14.8438 14.2578H10.1563C10.0009 14.2578 9.85182 14.3195 9.74193 14.4294C9.63205 14.5393 9.57032 14.6883 9.57032 14.8437V20.5078H4.49219V11.7187C4.49204 11.693 4.49697 11.6675 4.50669 11.6437C4.51641 11.6199 4.53073 11.5983 4.54883 11.5801L12.3613 3.76755C12.3795 3.74925 12.4011 3.73472 12.4249 3.7248C12.4487 3.71489 12.4742 3.70978 12.5 3.70978C12.5258 3.70978 12.5513 3.71489 12.5751 3.7248C12.5989 3.73472 12.6205 3.74925 12.6387 3.76755L20.4512 11.5801C20.4693 11.5983 20.4836 11.6199 20.4933 11.6437C20.503 11.6675 20.508 11.693 20.5078 11.7187V20.5078Z" fill="current"/>
<path d="M16.1035 34.832V37.8672H8.84961V34.832H16.1035ZM9.95117 35.6875V37.0117H15.0254V35.6875H9.95117ZM16.7363 28.3281V29.1836H8.19336V28.3281H11.9316V27.3555H13.0449V28.3281H16.7363ZM12.4824 29.5586C14.6973 29.5586 15.9277 30.0625 15.9277 31.0469C15.9277 31.9434 14.9023 32.4414 13.0449 32.5234V33.2383H17.2754V34.1172H7.70117V33.2383H11.9316V32.5234C10.0742 32.4414 9.02539 31.9434 9.03711 31.0469C9.02539 30.0625 10.2793 29.5586 12.4824 29.5586ZM12.4824 30.3203C11.0176 30.332 10.2207 30.5664 10.2207 31.0469C10.2207 31.5156 11.0176 31.7734 12.4824 31.7734C13.959 31.7734 14.7441 31.5156 14.7441 31.0469C14.7441 30.5664 13.959 30.332 12.4824 30.3203Z" fill="current"/>
</svg>
