<svg width="25" height="25" viewBox="0 0 25 25" fill="none" xmlns="http://www.w3.org/2000/svg">
<path d="M22.8801 11.2159L18.4855 15.0079L19.8244 20.6788C19.8983 20.9867 19.8793 21.3095 19.7697 21.6065C19.6602 21.9036 19.4651 22.1615 19.2091 22.3477C18.9531 22.5339 18.6476 22.6401 18.3313 22.6528C18.0149 22.6655 17.702 22.5842 17.4318 22.4191L12.5002 19.3839L7.56561 22.4191C7.29552 22.5832 6.9829 22.6638 6.66712 22.6506C6.35133 22.6374 6.0465 22.5311 5.79101 22.3451C5.53551 22.159 5.34079 21.9015 5.23134 21.605C5.1219 21.3085 5.10263 20.9863 5.17596 20.6788L6.51972 15.0079L2.12518 11.2159C1.88622 11.0094 1.71339 10.737 1.62829 10.4329C1.54319 10.1287 1.54959 9.8062 1.64668 9.50564C1.74378 9.20509 1.92727 8.9398 2.17423 8.7429C2.4212 8.54601 2.72071 8.42624 3.03534 8.39855L8.79706 7.9337L11.0197 2.5548C11.14 2.26165 11.3448 2.0109 11.608 1.83442C11.8712 1.65795 12.1809 1.56372 12.4977 1.56372C12.8146 1.56372 13.1243 1.65795 13.3875 1.83442C13.6507 2.0109 13.8555 2.26165 13.9758 2.5548L16.1974 7.9337L21.9592 8.39855C22.2744 8.42521 22.5748 8.54431 22.8227 8.74093C23.0705 8.93756 23.2549 9.20295 23.3526 9.50387C23.4503 9.80479 23.457 10.1279 23.3719 10.4326C23.2868 10.7373 23.1137 11.0101 22.8742 11.2169L22.8801 11.2159Z" fill="#CCFF33"/>
</svg>
