<svg width="25" height="25" viewBox="0 0 25 25" fill="none" xmlns="http://www.w3.org/2000/svg">
<path d="M23.172 9.55756C23.0883 9.29285 22.927 9.0594 22.709 8.88753C22.491 8.71565 22.2263 8.61328 21.9494 8.59369L16.0656 8.1181L13.798 2.62982C13.6922 2.37257 13.5124 2.15257 13.2813 1.99774C13.0502 1.84292 12.7783 1.76025 12.5002 1.76025C12.222 1.76025 11.9501 1.84292 11.719 1.99774C11.488 2.15257 11.3081 2.37257 11.2023 2.62982L8.93473 8.11615L3.05094 8.59369C2.77377 8.61342 2.50894 8.71608 2.29089 8.88833C2.07284 9.06057 1.91165 9.29444 1.82828 9.55951C1.74138 9.82388 1.7347 10.1081 1.80908 10.3762C1.88347 10.6444 2.03558 10.8845 2.24625 11.0663L6.73844 14.9345L5.37125 20.7206C5.3071 20.9914 5.32473 21.2752 5.4219 21.5359C5.51908 21.7967 5.69143 22.0227 5.91715 22.1855C6.14008 22.3506 6.4077 22.4446 6.68494 22.4551C6.96219 22.4655 7.23613 22.392 7.47086 22.2441L12.5002 19.1523L17.5373 22.249C17.772 22.3969 18.0459 22.4704 18.3232 22.4599C18.6004 22.4495 18.8681 22.3555 19.091 22.1904C19.3167 22.0276 19.4891 21.8016 19.5862 21.5408C19.6834 21.28 19.701 20.9963 19.6369 20.7255L18.2697 14.9394L22.7541 11.0663C22.9651 10.8844 23.1175 10.6439 23.1919 10.3753C23.2663 10.1068 23.2594 9.8222 23.172 9.55756ZM21.9865 10.1796L17.2316 14.2812C17.1505 14.3512 17.0901 14.4421 17.057 14.544C17.024 14.646 17.0195 14.755 17.0441 14.8593L18.4972 20.9912C18.51 21.0374 18.5078 21.0865 18.4912 21.1316C18.4746 21.1766 18.4442 21.2153 18.4045 21.2421C18.3684 21.27 18.3246 21.2859 18.2791 21.2877C18.2335 21.2894 18.1886 21.2769 18.1505 21.2519L12.8068 17.9687C12.7146 17.912 12.6084 17.882 12.5002 17.882C12.3919 17.882 12.2858 17.912 12.1935 17.9687L6.84977 21.2509C6.8117 21.2759 6.76677 21.2884 6.72125 21.2867C6.67573 21.2849 6.6319 21.269 6.59586 21.2412C6.55522 21.2149 6.52389 21.1766 6.50635 21.1315C6.48881 21.0864 6.48596 21.037 6.49821 20.9902L7.95133 14.8583C7.97593 14.754 7.97146 14.645 7.9384 14.5431C7.90534 14.4411 7.84496 14.3502 7.76383 14.2802L3.00895 10.1787C2.97164 10.1483 2.94473 10.107 2.93195 10.0606C2.91918 10.0143 2.92117 9.96506 2.93766 9.91986C2.9504 9.87531 2.97672 9.83584 3.01295 9.80696C3.04919 9.77807 3.09353 9.76121 3.13981 9.75873L9.38199 9.25482C9.48956 9.24609 9.59262 9.20782 9.67981 9.14423C9.767 9.08065 9.83494 8.99422 9.87613 8.89447L12.2814 3.07416C12.2982 3.03108 12.3276 2.99406 12.3657 2.96796C12.4039 2.94186 12.449 2.9279 12.4953 2.9279C12.5415 2.9279 12.5867 2.94186 12.6248 2.96796C12.663 2.99406 12.6924 3.03108 12.7091 3.07416L15.1144 8.89447C15.1556 8.99422 15.2235 9.08065 15.3107 9.14423C15.3979 9.20782 15.501 9.24609 15.6086 9.25482L21.8507 9.75873C21.897 9.76121 21.9414 9.77807 21.9776 9.80696C22.0138 9.83584 22.0402 9.87531 22.0529 9.91986C22.0702 9.9647 22.073 10.0138 22.0611 10.0603C22.0492 10.1069 22.0231 10.1486 21.9865 10.1796Z" fill="#ccff33"/>
</svg>
