<svg width="25" height="25" viewBox="0 0 25 25" fill="none" xmlns="http://www.w3.org/2000/svg">
<path d="M21.6404 5.70096C20.6154 4.67803 19.2269 4.10288 17.7787 4.10142C16.3306 4.09995 14.9409 4.67229 13.9139 5.69315L12.4998 7.00956L11.0857 5.69315C10.0594 4.66816 8.66801 4.09284 7.21753 4.09375C5.76705 4.09467 4.37635 4.67175 3.35135 5.69803C2.32636 6.72432 1.75104 8.11576 1.75195 9.56623C1.75287 11.0167 2.32995 12.4074 3.35624 13.4324L12.0828 22.2859C12.1373 22.3411 12.2022 22.385 12.2738 22.4149C12.3454 22.4448 12.4222 22.4602 12.4998 22.4602C12.5774 22.4602 12.6542 22.4448 12.7258 22.4149C12.7974 22.385 12.8623 22.3411 12.9168 22.2859L21.6404 13.4363C22.1484 12.9285 22.5514 12.3255 22.8264 11.6619C23.1013 10.9983 23.2429 10.287 23.2429 9.56864C23.2429 8.85031 23.1013 8.13902 22.8264 7.47539C22.5514 6.81177 22.1484 6.20881 21.6404 5.70096ZM20.8084 12.6101L12.4998 21.0398L4.18827 12.6072C3.38714 11.8005 2.9384 10.7091 2.94033 9.57216C2.94227 8.43522 3.39473 7.34539 4.19861 6.54138C5.00249 5.73738 6.09224 5.28474 7.22919 5.28262C8.36613 5.2805 9.45757 5.72906 10.2644 6.53007C10.2691 6.53517 10.2744 6.53975 10.2801 6.54374L12.1004 8.23905C12.2088 8.3401 12.3516 8.39628 12.4998 8.39628C12.648 8.39628 12.7907 8.3401 12.8992 8.23905L14.7195 6.54276C14.7252 6.53877 14.7304 6.53419 14.7351 6.52909C15.1339 6.128 15.6078 5.80957 16.1299 5.59206C16.6519 5.37454 17.2118 5.26223 17.7773 5.26155C18.3429 5.26087 18.903 5.37184 19.4256 5.5881C19.9481 5.80436 20.4229 6.12165 20.8225 6.52178C21.2222 6.92191 21.539 7.397 21.7546 7.91981C21.9703 8.44262 22.0807 9.00287 22.0793 9.56841C22.078 10.134 21.9651 10.6937 21.747 11.2155C21.5289 11.7373 21.2099 12.2109 20.8084 12.6092V12.6101Z" fill="#ccff33"/>
</svg>
