<svg width="25" height="25" viewBox="0 0 25 25" fill="none" xmlns="http://www.w3.org/2000/svg">
<path d="M23.4373 9.57013C23.439 10.3141 23.2931 11.0511 23.0082 11.7383C22.7232 12.4256 22.3048 13.0495 21.7772 13.574L13.0565 22.4236C12.9838 22.4975 12.8971 22.5561 12.8015 22.5961C12.706 22.6361 12.6034 22.6567 12.4998 22.6567C12.3962 22.6567 12.2936 22.6361 12.1981 22.5961C12.1025 22.5561 12.0159 22.4975 11.9432 22.4236L3.22247 13.574C2.15928 12.5121 1.56146 11.0714 1.56055 9.5687C1.55963 8.06603 2.15569 6.62454 3.21759 5.56134C4.27949 4.49814 5.72025 3.90033 7.22293 3.89942C8.7256 3.8985 10.1671 4.49456 11.2303 5.55646L12.4998 6.74298L13.7781 5.55255C14.5715 4.76309 15.5811 4.22638 16.6792 4.0102C17.7774 3.79401 18.915 3.90804 19.9485 4.33788C20.9819 4.76772 21.8648 5.4941 22.4858 6.42532C23.1067 7.35655 23.4378 8.45087 23.4373 9.57013Z" fill="#CCFF33"/>
</svg>
