<svg width="25" height="25" viewBox="0 0 25 25" fill="none" xmlns="http://www.w3.org/2000/svg">
<path d="M22.0581 2.94147C21.8873 2.76804 21.6728 2.64399 21.4373 2.58245C21.2018 2.52091 20.9541 2.52416 20.7203 2.59186H20.7095L1.96635 8.27838C1.70014 8.35548 1.46366 8.51166 1.28823 8.72622C1.11281 8.94077 1.00674 9.20358 0.984073 9.47979C0.961408 9.75601 1.02322 10.0326 1.16132 10.2729C1.29942 10.5132 1.50729 10.7058 1.75736 10.8253L10.1128 14.8917L14.1714 23.2422C14.2808 23.4764 14.4548 23.6743 14.673 23.8128C14.8912 23.9512 15.1445 24.0243 15.4029 24.0235C15.4419 24.0235 15.482 24.0235 15.521 24.0186C15.7979 23.9968 16.0613 23.8907 16.2759 23.7145C16.4906 23.5383 16.646 23.3005 16.7212 23.0333L22.4048 4.2901V4.27936C22.4729 4.0458 22.4766 3.7982 22.4156 3.56271C22.3546 3.32722 22.2311 3.11258 22.0581 2.94147ZM21.2769 3.95709L15.5982 22.6983V22.709C15.5873 22.7479 15.5647 22.7824 15.5334 22.8079C15.5022 22.8334 15.4638 22.8485 15.4235 22.8513C15.3833 22.8541 15.3432 22.8444 15.3087 22.8234C15.2742 22.8025 15.2471 22.7714 15.231 22.7344L11.2583 14.5723L16.0435 9.78717C16.0979 9.73273 16.1411 9.6681 16.1706 9.59697C16.2 9.52584 16.2152 9.44961 16.2152 9.37262C16.2152 9.29563 16.2 9.2194 16.1706 9.14827C16.1411 9.07714 16.0979 9.01251 16.0435 8.95807C15.9891 8.90363 15.9244 8.86045 15.8533 8.83098C15.7822 8.80152 15.7059 8.78636 15.6289 8.78636C15.552 8.78636 15.4757 8.80152 15.4046 8.83098C15.3335 8.86045 15.2688 8.90363 15.2144 8.95807L10.4292 13.7432L2.26029 9.76569C2.22409 9.74882 2.19393 9.72126 2.17388 9.68672C2.15383 9.65218 2.14485 9.61232 2.14814 9.57252C2.15144 9.53272 2.16687 9.49488 2.19233 9.46412C2.2178 9.43335 2.25208 9.41113 2.29056 9.40045H2.30131L21.0425 3.71881C21.0754 3.70956 21.1103 3.7094 21.1433 3.71834C21.1763 3.72728 21.2063 3.74499 21.23 3.76959C21.2541 3.7937 21.2715 3.82369 21.2804 3.85658C21.2893 3.88947 21.2894 3.92413 21.2808 3.95709H21.2769Z" fill="white"/>
</svg>
