<svg width="27" height="27" viewBox="0 0 27 27" fill="none" xmlns="http://www.w3.org/2000/svg">
<path d="M18.1659 10.5216C18.2844 10.6402 18.351 10.8011 18.351 10.9687C18.351 11.1364 18.2844 11.2973 18.1659 11.4159L12.2597 17.3222C12.141 17.4407 11.9802 17.5073 11.8125 17.5073C11.6448 17.5073 11.484 17.4407 11.3653 17.3222L8.83407 14.7909C8.72229 14.671 8.66143 14.5123 8.66433 14.3484C8.66722 14.1844 8.73363 14.028 8.84957 13.9121C8.96552 13.7961 9.12193 13.7297 9.28588 13.7268C9.44982 13.7239 9.60848 13.7848 9.72844 13.8966L11.8125 15.9796L17.2716 10.5216C17.3902 10.4031 17.5511 10.3365 17.7188 10.3365C17.8864 10.3365 18.0473 10.4031 18.1659 10.5216ZM24.2578 13.5C24.2578 15.6277 23.6269 17.7076 22.4448 19.4767C21.2627 21.2458 19.5826 22.6247 17.6168 23.4389C15.6511 24.2532 13.4881 24.4662 11.4013 24.0511C9.31445 23.636 7.39759 22.6114 5.89308 21.1069C4.38858 19.6024 3.36399 17.6856 2.9489 15.5987C2.53381 13.5119 2.74685 11.3489 3.56108 9.38316C4.37532 7.41743 5.75417 5.73729 7.52328 4.55521C9.2924 3.37312 11.3723 2.74219 13.5 2.74219C16.3521 2.74554 19.0865 3.88002 21.1032 5.89678C23.12 7.91353 24.2545 10.6479 24.2578 13.5ZM22.9922 13.5C22.9922 11.6226 22.4355 9.78741 21.3925 8.22642C20.3495 6.66544 18.867 5.4488 17.1325 4.73036C15.398 4.01192 13.4895 3.82394 11.6482 4.1902C9.80687 4.55646 8.11552 5.4605 6.78801 6.78801C5.46051 8.11552 4.55647 9.80686 4.19021 11.6482C3.82395 13.4895 4.01193 15.398 4.73037 17.1325C5.44881 18.867 6.66545 20.3494 8.22643 21.3925C9.78741 22.4355 11.6226 22.9922 13.5 22.9922C16.0166 22.9894 18.4294 21.9884 20.2089 20.2089C21.9884 18.4294 22.9894 16.0166 22.9922 13.5Z" fill="#CCFF33"/>
</svg>
