<svg width="27" height="27" viewBox="0 0 27 27" fill="none" xmlns="http://www.w3.org/2000/svg">
<path d="M13.5 2.53125C11.3306 2.53125 9.2099 3.17456 7.40609 4.37982C5.60229 5.58508 4.1964 7.29816 3.3662 9.30244C2.536 11.3067 2.31878 13.5122 2.74202 15.6399C3.16525 17.7676 4.20992 19.7221 5.74393 21.2561C7.27793 22.7901 9.23238 23.8348 11.3601 24.258C13.4878 24.6812 15.6933 24.464 17.6976 23.6338C19.7018 22.8036 21.4149 21.3977 22.6202 19.5939C23.8254 17.7901 24.4688 15.6694 24.4688 13.5C24.4657 10.5918 23.3091 7.80369 21.2527 5.74731C19.1963 3.69094 16.4082 2.53432 13.5 2.53125ZM18.3157 11.5657L12.4095 17.472C12.3311 17.5504 12.238 17.6126 12.1356 17.6551C12.0332 17.6976 11.9234 17.7194 11.8125 17.7194C11.7016 17.7194 11.5918 17.6976 11.4894 17.6551C11.387 17.6126 11.2939 17.5504 11.2156 17.472L8.6843 14.9407C8.52598 14.7824 8.43704 14.5676 8.43704 14.3437C8.43704 14.1198 8.52598 13.9051 8.6843 13.7468C8.84262 13.5885 9.05735 13.4995 9.28125 13.4995C9.50516 13.4995 9.71989 13.5885 9.87821 13.7468L11.8125 15.6821L17.1218 10.3718C17.2002 10.2934 17.2933 10.2312 17.3957 10.1888C17.4981 10.1464 17.6079 10.1245 17.7188 10.1245C17.8296 10.1245 17.9394 10.1464 18.0418 10.1888C18.1442 10.2312 18.2373 10.2934 18.3157 10.3718C18.3941 10.4502 18.4563 10.5433 18.4987 10.6457C18.5411 10.7481 18.563 10.8579 18.563 10.9687C18.563 11.0796 18.5411 11.1894 18.4987 11.2918C18.4563 11.3942 18.3941 11.4873 18.3157 11.5657Z" fill="#CCFF33"/>
</svg>
