<svg width="25" height="40" viewBox="0 0 25 40" fill="current" xmlns="http://www.w3.org/2000/svg">
<path d="M10.9962 15.4717C12.0842 14.855 12.9376 13.8954 13.4231 12.7428C13.9086 11.5902 13.999 10.3093 13.68 9.09991C13.3611 7.89054 12.6509 6.82073 11.6602 6.05738C10.6694 5.29403 9.45391 4.88007 8.2032 4.88007C6.95249 4.88007 5.73696 5.29403 4.74622 6.05738C3.75548 6.82073 3.04526 7.89054 2.72636 9.09991C2.40745 10.3093 2.4978 11.5902 2.9833 12.7428C3.4688 13.8954 4.32215 14.855 5.41023 15.4717C3.3936 16.1146 1.66174 17.4359 0.508865 19.211C0.423913 19.3411 0.394141 19.4997 0.426099 19.6518C0.458057 19.8039 0.549127 19.937 0.679275 20.022C0.809423 20.1069 0.967987 20.1367 1.12009 20.1048C1.27218 20.0728 1.40536 19.9817 1.49031 19.8516C2.21747 18.7336 3.21235 17.8149 4.38464 17.1789C5.55694 16.5429 6.86951 16.2098 8.2032 16.2098C9.53689 16.2098 10.8495 16.5429 12.0218 17.1789C13.1941 17.8149 14.1889 18.7336 14.9161 19.8516C15.0066 19.9675 15.1374 20.0452 15.2825 20.0692C15.4276 20.0932 15.5764 20.0617 15.6994 19.9811C15.8224 19.9004 15.9106 19.7764 15.9464 19.6337C15.9822 19.4911 15.963 19.3401 15.8927 19.211C14.741 17.4367 13.011 16.1156 10.9962 15.4717ZM3.71101 10.5469C3.71101 9.65842 3.97448 8.7899 4.46808 8.05117C4.96169 7.31243 5.66327 6.73666 6.48411 6.39665C7.30495 6.05665 8.20818 5.96769 9.07958 6.14102C9.95098 6.31435 10.7514 6.74219 11.3797 7.37044C12.0079 7.99868 12.4357 8.79911 12.6091 9.67051C12.7824 10.5419 12.6934 11.4451 12.3534 12.266C12.0134 13.0868 11.4377 13.7884 10.6989 14.282C9.96019 14.7756 9.09167 15.0391 8.2032 15.0391C7.01227 15.0375 5.87057 14.5638 5.02846 13.7216C4.18634 12.8795 3.71256 11.7378 3.71101 10.5469ZM24.3165 20.0195C24.1864 20.1044 24.028 20.1342 23.876 20.1023C23.7241 20.0705 23.5909 19.9796 23.5059 19.8496C22.7801 18.7315 21.7859 17.8128 20.6141 17.1772C19.4423 16.5417 18.13 16.2095 16.797 16.211C16.6416 16.211 16.4925 16.1492 16.3826 16.0393C16.2727 15.9295 16.211 15.7804 16.211 15.625C16.211 15.4696 16.2727 15.3206 16.3826 15.2107C16.4925 15.1008 16.6416 15.0391 16.797 15.0391C17.4585 15.0384 18.1117 14.8917 18.7099 14.6093C19.3081 14.3269 19.8366 13.9159 20.2575 13.4057C20.6785 12.8954 20.9816 12.2985 21.1452 11.6575C21.3087 11.0165 21.3287 10.3473 21.2036 9.69776C21.0786 9.04818 20.8116 8.43423 20.4218 7.89978C20.032 7.36532 19.529 6.92355 18.9487 6.60603C18.3683 6.28851 17.725 6.10307 17.0648 6.06297C16.4045 6.02287 15.7435 6.12909 15.129 6.37404C15.0574 6.40334 14.9808 6.41819 14.9034 6.41772C14.8261 6.41726 14.7496 6.40149 14.6784 6.37133C14.6072 6.34117 14.5427 6.29721 14.4885 6.24198C14.4344 6.18676 14.3917 6.12137 14.363 6.04958C14.3343 5.97779 14.32 5.90101 14.3211 5.82369C14.3221 5.74637 14.3385 5.67002 14.3692 5.59905C14.3999 5.52808 14.4444 5.46389 14.5001 5.41019C14.5557 5.35649 14.6214 5.31433 14.6934 5.28615C16.0263 4.75478 17.5111 4.74905 18.848 5.27014C20.1849 5.79122 21.2742 6.80027 21.8959 8.09345C22.5175 9.38664 22.6252 10.8676 22.1972 12.2371C21.7692 13.6066 20.8373 14.7627 19.5899 15.4717C21.6065 16.1146 23.3384 17.4359 24.4913 19.211C24.5751 19.3414 24.6037 19.4998 24.571 19.6514C24.5382 19.8029 24.4467 19.9353 24.3165 20.0195Z" fill="current"/>
<path d="M12.125 35.7461V36.6602H2.51562V35.7461H6.72266V33.25H7.82422V35.7461H12.125ZM7.84766 28.9609C7.84766 30.625 9.67578 32.1836 11.7031 32.5234L11.2227 33.4375C9.52344 33.0977 7.95898 32.0488 7.26172 30.6016C6.57031 32.043 5.02344 33.1094 3.33594 33.4375L2.84375 32.5234C4.85938 32.1836 6.67578 30.625 6.67578 28.9609V28.1641H7.84766V28.9609ZM21.6406 27.4961V32.9922H20.5273V31.2344H18.5586V30.3555H20.5273V29.3594H18.5586V28.4922H20.5273V27.4961H21.6406ZM21.6406 33.4492V36.0273H15.8867V36.9883H22.0039V37.8672H14.7969V35.207H20.5391V34.3281H14.7734V33.4492H21.6406ZM16.5781 28.8203C16.5781 30.1797 17.5391 31.4805 19.1211 32.0078L18.5352 32.8633C17.3633 32.4473 16.4844 31.5977 16.0391 30.5312C15.5762 31.6797 14.668 32.5996 13.4492 33.0391L12.8633 32.1719C14.4805 31.6328 15.4648 30.2617 15.4766 28.8203V27.7656H16.5781V28.8203Z" fill="current"/>
</svg>
